<svg width="14" height="17" viewBox="0 0 14 17" fill="none" xmlns="http://www.w3.org/2000/svg">
<path d="M11.2657 1.01002C11.1344 0.889766 10.9298 0.901075 10.8125 1.03507L10.5462 1.33936C10.4326 1.46921 10.4435 1.66606 10.5708 1.78255L11.6424 2.76318V2.76318C11.7194 2.83967 11.723 2.96216 11.6507 3.04304L11.5055 3.20526C11.0672 3.64077 11.3817 4.20442 11.5397 4.36146L12.2675 5.08452C12.3275 5.1441 12.3612 5.22515 12.3612 5.30968V11.6728C12.3612 12.7609 11.9317 12.7609 11.8136 12.7609C11.6954 12.7609 11.2659 12.7609 11.2659 11.6728V7.31999C11.2659 6.06076 10.372 5.30048 9.39173 5.16535C9.21808 5.14142 9.0753 5.0015 9.0753 4.82621V2.96722C9.0753 2.36729 8.6101 1.87902 7.98 1.87902H1.40817C0.751817 1.87902 0.312866 2.34121 0.312866 2.96722V15.7081C0.312866 15.8834 0.454966 16.0255 0.630256 16.0255H8.75792C8.93321 16.0255 9.0753 15.8834 9.0753 15.7081V6.54918C9.0753 6.37389 9.21891 6.23376 9.3881 6.27958C9.71183 6.36724 10.1706 6.61571 10.1706 7.31999V11.6728C10.1706 13.8491 11.5285 13.8491 11.8136 13.8491C12.1155 13.8491 13.4565 13.8491 13.4565 11.6728V4.05541C13.4565 2.96722 13.1432 2.73955 12.772 2.38912L11.2657 1.01002ZM1.40817 4.3728C1.40817 4.19751 1.55027 4.05541 1.72556 4.05541H7.66261C7.8379 4.05541 7.98 4.19751 7.98 4.3728V7.0026C7.98 7.17789 7.8379 7.31999 7.66261 7.31999H1.72556C1.55027 7.31999 1.40817 7.17789 1.40817 7.0026V4.3728Z" fill="white" fill-opacity="0.3"/>
</svg>
