<svg width="19" height="14" viewBox="0 0 19 14" fill="none" xmlns="http://www.w3.org/2000/svg">
<path d="M9.15975 0.325562C6.19574 0.327686 3.40492 1.32745 1.69882 3.02844C0.622862 4.10134 0.0540771 5.36375 0.0540771 6.67909C0.0540771 10.1614 4.13874 13.0066 9.15914 13.0211H9.15975C9.29273 13.0211 9.41757 12.9105 9.45624 12.7833C10.6788 8.77477 10.6758 4.5405 9.44778 0.539234C9.40907 0.412593 9.29212 0.32585 9.15975 0.325562Z" fill="white"/>
<path d="M17.9236 4.8468H11.2745C11.1077 4.8468 10.9723 4.98219 10.9723 5.14902C10.9723 5.31584 11.1077 5.45123 11.2745 5.45123H17.9236C18.0905 5.45123 18.2258 5.31584 18.2258 5.14902C18.2258 4.98219 18.0905 4.8468 17.9236 4.8468Z" fill="white"/>
<path d="M17.9236 7.86914H11.2745C11.1077 7.86914 10.9723 8.00453 10.9723 8.17136C10.9723 8.33818 11.1077 8.47357 11.2745 8.47357H17.9236C18.0905 8.47357 18.2258 8.33818 18.2258 8.17136C18.2258 8.00453 18.0905 7.86914 17.9236 7.86914Z" fill="white"/>
<path d="M17.9236 10.8915H11.2745C11.1077 10.8915 10.9723 11.0269 10.9723 11.1937C10.9723 11.3605 11.1077 11.4959 11.2745 11.4959H17.9236C18.0905 11.4959 18.2258 11.3605 18.2258 11.1937C18.2259 11.0269 18.0905 10.8915 17.9236 10.8915Z" fill="white"/>
<path d="M11.2745 2.42902H17.9236C18.0905 2.42902 18.2258 2.29363 18.2258 2.1268C18.2258 1.95998 18.0905 1.82458 17.9236 1.82458H11.2745C11.1077 1.82458 10.9723 1.95998 10.9723 2.1268C10.9723 2.29363 11.1077 2.42902 11.2745 2.42902Z" fill="white"/>
</svg>
