<svg width="20" height="14" viewBox="0 0 20 14" fill="none" xmlns="http://www.w3.org/2000/svg">
<path d="M18.8103 4.13089H17.5419C17.4043 4.13089 17.2852 4.21644 17.2406 4.34663L16.359 6.98767H15.496L14.6368 5.55556C14.581 5.45885 14.4768 5.40305 14.3652 5.40305H13.0968V4.45079C13.0968 4.27596 12.9554 4.13461 12.7806 4.13461H10.5599V2.86617H11.5122C11.687 2.86617 11.8283 2.72481 11.8283 2.54998V0.641742C11.8283 0.466913 11.687 0.325562 11.5122 0.325562H5.79487C5.62004 0.325562 5.47869 0.466913 5.47869 0.641742V2.54627C5.47869 2.72109 5.62004 2.86245 5.79487 2.86245H6.74713V4.13089H4.20653C4.12097 4.13089 4.04286 4.16437 3.98334 4.22388C3.92383 4.2834 3.89035 4.36523 3.89035 4.44707V5.39933H1.66964C1.49482 5.39933 1.35346 5.54068 1.35346 5.71551V7.62003H0.717383V6.67149C0.717383 6.49666 0.576032 6.35531 0.401202 6.35531C0.226373 6.35531 0.085022 6.49666 0.085022 6.67149V9.2121C0.085022 9.38692 0.226373 9.52828 0.401202 9.52828C0.576032 9.52828 0.717383 9.38692 0.717383 9.2121V8.25983H1.35346V10.8004C1.35346 10.9753 1.49482 11.1166 1.66964 11.1166H4.03914L5.21459 12.8798C5.2741 12.9691 5.37454 13.0211 5.47869 13.0211H14.3652C14.4843 13.0211 14.5958 12.9542 14.6479 12.8463L15.5109 11.1166H16.3888L17.2518 12.8463C17.3076 12.9542 17.4154 13.0211 17.5345 13.0211H18.8029C18.9777 13.0211 19.1191 12.8798 19.1191 12.705V4.45079C19.1265 4.27224 18.9852 4.13089 18.8103 4.13089ZM3.89035 10.4805H1.98582V6.03541H3.89035V10.4805ZM9.9201 4.13089H7.37949V2.86245H9.9201V4.13089ZM16.2697 10.4805H15.6337V7.62375H16.2697V10.4805Z" fill="white"/>
</svg>
